<?xml version="1.0" standalone="no"?><!DOCTYPE svg PUBLIC "-//W3C//DTD SVG 1.1//EN" "http://www.w3.org/Graphics/SVG/1.1/DTD/svg11.dtd"><svg t="1622809699640" class="icon" viewBox="0 0 1024 1024" version="1.1" xmlns="http://www.w3.org/2000/svg" p-id="91782" xmlns:xlink="http://www.w3.org/1999/xlink" width="128" height="128"><defs><style type="text/css"></style></defs><path d="M921.813333 227.157333L749.781333 58.88 732.928 42.666667H173.013333C125.866667 42.666667 85.333333 78.250667 85.333333 126.805333v770.389334C85.333333 942.506667 122.453333 981.333333 173.013333 981.333333h677.973334C898.133333 981.333333 938.666667 945.749333 938.666667 897.194667V243.328l-16.853334-16.170667z" fill="#85A9C7" p-id="91783"></path><path d="M374.741333 623.445333H313.514667v188.373334c0 7.466667-5.546667 13.056-14.848 13.056a12.714667 12.714667 0 0 1-12.970667-13.056v-188.373334H224.426667c-5.546667 0-11.136-3.712-11.136-11.178666 0-7.466667 5.546667-13.056 11.093333-13.056h150.314667c5.546667 0 11.093333 5.546667 11.093333 13.056 0 7.466667-5.546667 11.178667-11.093333 11.178666z m217.045334 201.429334c-5.546667 0-9.301333 0-11.136-3.712L512 727.893333l-70.485333 93.269334c-1.877333 3.712-5.546667 3.712-9.301334 3.712a12.714667 12.714667 0 0 1-12.970666-13.056c0-1.834667 0-5.546667 1.877333-7.466667l72.32-95.104L426.666667 617.856c-1.834667-1.877333-1.834667-3.754667-1.834667-7.466667 0-5.589333 3.669333-13.056 12.970667-13.056 3.712 0 7.424 1.877333 11.093333 5.589334L512 688.725333l63.061333-85.76c3.712-3.754667 7.424-5.632 11.136-5.632 7.424 0 12.970667 5.589333 12.970667 13.056 0 3.712 0 5.589333-1.834667 7.466667l-66.773333 89.514667 72.32 96.981333c0 1.877333 1.877333 5.632 1.877333 7.466667 0 7.466667-5.546667 13.056-12.970666 13.056z m207.786666-201.429334h-61.269333v188.373334c0 7.466667-5.546667 13.056-14.805333 13.056a12.714667 12.714667 0 0 1-13.013334-13.056v-188.373334h-61.226666c-5.546667 0-11.093333-3.712-11.093334-11.178666 0-7.466667 5.546667-13.056 11.093334-13.056h150.272c5.546667 0 11.136 5.546667 11.136 13.056 0 7.466667-5.546667 11.178667-11.093334 11.178666z" fill="#FFFFFF" p-id="91784"></path><path d="M800.853333 240.426667l138.368 3.072L732.202667 42.154667l-0.170667 129.450666c0 37.845333 30.933333 68.821333 68.821333 68.821334z" fill="#FFFFFF" opacity=".565" p-id="91785"></path></svg>