<?xml version="1.0" standalone="no"?><!DOCTYPE svg PUBLIC "-//W3C//DTD SVG 1.1//EN" "http://www.w3.org/Graphics/SVG/1.1/DTD/svg11.dtd"><svg t="1622809642143" class="icon" viewBox="0 0 1024 1024" version="1.1" xmlns="http://www.w3.org/2000/svg" p-id="88472" xmlns:xlink="http://www.w3.org/1999/xlink" width="128" height="128"><defs><style type="text/css"></style></defs><path d="M160 32a46.0288 46.0288 0 0 0-33.5872 14.3872 50.944 50.944 0 0 0-14.3872 33.5872v864c0 12.032 4.7616 24.832 14.336 33.6384a47.4112 47.4112 0 0 0 33.6384 14.3872h704a46.0288 46.0288 0 0 0 33.5872-14.3872 47.4112 47.4112 0 0 0 14.4384-33.6384v-640L640 32H160z" fill="#6CCBFF" p-id="88473"></path><path d="M912.0256 304.0256h-224a46.0288 46.0288 0 0 1-33.6384-14.4384A46.08 46.08 0 0 1 640 256V32l272.0256 272.0256z" fill="#C4EAFF" p-id="88474"></path><path d="M280.0128 385.5872h64.768L409.6 629.6064h0.8192l71.168-244.0192h62.4128l71.9872 244.0192 65.5872-244.0192h62.464l-96.0512 314.4192H583.168L512 458.3424h-0.8192l-71.9872 240.8448H374.4256z" fill="#FFFFFF" p-id="88475"></path></svg>